# xmcd
#
# Track frame offsets: 
#        150
#        24606
#        43366
#        68574
#        87304
#        101064
#        123029
#        144141
#        163174
#        183534
#
# Disc length: 2641 seconds
#
# Revision: 0
# Processed by: cddbd v1.5.2PL0 Copyright (c) Steve Scherf et al.
# Submitted via: ExactAudioCopy v1.3
#
DISCID=840a4f0a
DTITLE=The Nighthawks - Pain and Paradise
DYEAR=1996
DGENRE=Blues Rock
TTITLE0=Trouble Comin' Every Day
TTITLE1=Shade Tree Mechanic
TTITLE2=Same Thing
TTITLE3=The Soul Of A Man
TTITLE4=High Temperature
TTITLE5=Pain and Paradise
TTITLE6=Is Love Enough
TTITLE7=Trouble On The Way
TTITLE8=I Told You So
TTITLE9=Snap It
EXTD=
EXTT0=
EXTT1=
EXTT2=
EXTT3=
EXTT4=
EXTT5=
EXTT6=
EXTT7=
EXTT8=
EXTT9=
PLAYORDER=
